<?xml version="1.0" encoding="UTF-8"?>
<svg id="Layer_1" data-name="Layer 1" xmlns="http://www.w3.org/2000/svg" viewBox="0 0 968.7 935.94">
  <defs>
    <style>
      .cls-1 {
        fill: #b20;
      }
    </style>
  </defs>
  <path class="cls-1" d="M294.91,466.94c-81.92-40.96-137.22-122.88-137.22-221.18C157.7,110.59,268.29,0,403.46,0s245.76,110.59,245.76,245.76-104.45,241.66-237.57,245.76h-2.05c-202.75,0-368.64,165.89-368.64,368.64,0,12.29-8.19,20.48-20.48,20.48s-20.48-8.19-20.48-20.48c0-186.37,124.93-344.06,294.91-393.22h0ZM403.46,450.56c112.64,0,204.8-92.16,204.8-204.8s-92.16-204.8-204.8-204.8-204.8,92.16-204.8,204.8,92.16,204.8,204.8,204.8h0ZM964.61,585.73l4.1,10.24-49.15,59.39c-8.19,10.24-8.19,26.62,0,36.86l49.15,57.34-4.1,10.24c-10.24,28.67-24.58,57.34-45.06,79.87l-8.19,8.19-75.78-12.29c-12.29-2.05-26.62,6.14-30.72,18.43l-26.62,73.73-10.24,2.05c-38.91,8.19-77.82,8.19-116.74,0l-12.29-2.05-24.58-71.68c-4.1-12.29-18.43-20.48-30.72-18.43l-77.82,12.29-8.19-8.19c-10.24-10.24-18.43-22.53-24.58-34.82-8.19-14.34-16.38-30.72-20.48-47.1l-4.1-10.24,51.2-57.34c8.19-10.24,8.19-26.62,0-34.82l-49.15-59.39,4.1-10.24c10.24-30.72,26.62-57.34,47.1-81.92l8.19-8.19,73.73,12.29c12.29,2.05,26.62-6.14,32.77-18.43l26.62-71.68,10.24-2.05c36.86-8.19,75.78-8.19,114.69,0l12.29,2.05,24.58,69.63c4.1,12.29,18.43,22.53,32.77,20.48l75.78-10.24,8.19,8.19c10.24,12.29,18.43,22.53,24.58,36.86,6.14,10.24,12.29,26.62,18.43,40.96h0ZM907.26,561.15c-4.1-8.19-8.19-14.34-14.34-22.53l-53.25,6.14c-32.77,4.1-65.54-16.38-75.78-47.1l-16.38-47.1c-24.58-4.1-49.15-4.1-73.73,0l-18.43,49.15c-10.24,30.72-45.06,51.2-77.82,45.06l-51.2-8.19c-12.29,14.34-20.48,32.77-28.67,49.15l34.82,40.96c20.48,24.58,20.48,63.49,0,88.06l-34.82,40.96c4.1,10.24,8.19,18.43,14.34,28.67,4.1,8.19,8.19,14.34,14.34,20.48l55.3-8.19c32.77-4.1,65.54,16.38,75.78,47.1l16.38,49.15c24.58,4.1,51.2,4.1,75.78,0l18.43-51.2c10.24-30.72,45.06-51.2,75.78-45.06l51.2,8.19c10.24-14.34,20.48-30.72,26.62-49.15l-32.77-38.91c-20.48-24.58-22.53-63.49-2.05-88.06l34.82-40.96c-4.1-8.19-8.19-16.38-14.34-26.62h0ZM710.66,765.95c-51.2,0-92.16-40.96-92.16-92.16s40.96-92.16,92.16-92.16,92.16,40.96,92.16,92.16-43.01,92.16-92.16,92.16ZM710.66,724.99c28.67,0,51.2-22.53,51.2-51.2s-22.53-51.2-51.2-51.2-51.2,22.53-51.2,51.2,22.53,51.2,51.2,51.2Z"/>
</svg>