<?xml version="1.0" encoding="UTF-8"?>
<svg id="Layer_1" data-name="Layer 1" xmlns="http://www.w3.org/2000/svg" viewBox="0 0 1023.96 1024">
  <defs>
    <style>
      .cls-1 {
        fill: #b20;
      }
    </style>
  </defs>
  <path class="cls-1" d="M21.31,1024C9.53,1023.99-.01,1014.43,0,1002.64c.01-11.77,9.55-21.3,21.31-21.31h21.33v-170.67c0-23.55,19.16-42.67,42.67-42.67h85.33c23.51,0,42.67,19.11,42.67,42.67v170.67h85.33v-384c0-23.55,19.16-42.67,42.67-42.67h85.33c23.51,0,42.67,19.11,42.67,42.67v384h85.33v-298.67c0-23.56,19.1-42.67,42.67-42.67h85.33c23.56,0,42.67,19.1,42.67,42.67v298.67h85.33V384c0-23.51,19.11-42.67,42.67-42.67h85.33c23.55,0,42.67,19.16,42.67,42.67v597.33h21.33c11.78.01,21.32,9.57,21.31,21.36-.01,11.77-9.55,21.3-21.31,21.31H21.31ZM938.64,981.33V384h-85.33v597.33h85.33ZM682.64,981.33v-298.67h-85.33v298.67h85.33ZM426.64,981.33v-384h-85.33v384h85.33ZM170.64,981.33v-170.67h-85.33v170.67h85.33Z"/>
  <path class="cls-1" d="M127.98,576c-47.06,0-85.33-38.27-85.33-85.33s38.27-85.33,85.33-85.33c17.92,0,35.29,5.67,49.75,16.13l129.19-107.69c-5.43-11.38-8.26-23.83-8.28-36.44,0-47.06,38.27-85.33,85.33-85.33,47.18.06,85.37,38.35,85.31,85.52,0,1.89-.07,3.77-.19,5.66l99.33,33.11c23.38-36.34,70.32-49.33,109.06-30.17l141.23-164.74c-20.01-42.57-1.72-93.29,40.85-113.3C870.95,2.73,883.39-.03,895.98,0,943.04,0,981.31,38.27,981.31,85.33s-38.27,85.33-85.33,85.33c-17.92,0-35.16-5.63-49.62-16l-136.49,159.23c10.03,14.25,15.45,31.27,15.45,48.77,0,47.06-38.27,85.33-85.33,85.33-47.18-.05-85.37-38.34-85.32-85.52,0-1.92.07-3.83.2-5.75l-99.33-33.11c-25.35,39.48-77.9,50.94-117.38,25.59-1.33-.86-2.64-1.75-3.92-2.68l-129.19,107.69c5.46,11.39,8.28,23.85,8.28,36.44,0,47.06-38.27,85.33-85.33,85.33h0ZM127.98,448c-23.51,0-42.67,19.16-42.67,42.67s19.16,42.67,42.67,42.67,42.67-19.16,42.67-42.67-19.16-42.67-42.67-42.67ZM639.98,320c-23.56,1.05-41.81,21.01-40.76,44.58.99,22.09,18.67,39.77,40.76,40.76,23.56-1.05,41.81-21.01,40.76-44.58-.99-22.09-18.67-39.77-40.76-40.76ZM383.98,234.67c-23.51,0-42.67,19.16-42.67,42.67s19.16,42.67,42.67,42.67,42.67-19.16,42.67-42.67-19.16-42.67-42.67-42.67h0ZM895.98,42.67c-23.56,1.05-41.81,21.01-40.76,44.58.99,22.09,18.67,39.77,40.76,40.76,23.56-1.05,41.81-21.01,40.76-44.58-.99-22.09-18.67-39.77-40.76-40.76Z"/>
</svg>