<?xml version="1.0" encoding="UTF-8"?>
<svg id="Layer_1" data-name="Layer 1" xmlns="http://www.w3.org/2000/svg" viewBox="0 0 189.2 29.63">
  <defs>
    <style>
      .cls-1 {
        fill: #b20;
      }
    </style>
  </defs>
  <path class="cls-1" d="M107.04,20.13l-1.4,1.49c-6.57,3.67-12.86-2.85-10.05-9.59,1.88-4.51,8.18-5.33,11.45-1.85v-1.85s2.78,0,2.78,0v14.93c0,4.47-5.27,6.68-9.11,6.33-1.3-.12-4.74-1.1-5.37-2.28-.4-.75,1.29-1.57,1.29-2.31h.33c1.85,2.21,6.95,3.02,8.92.81.22-.24,1.15-2.12,1.15-2.32v-3.36ZM101.2,10.7c-4.1.7-4.84,7.43-.8,9.02,4.08,1.6,7.51-1.54,6.48-5.79-.66-2.71-3.08-3.67-5.69-3.23Z"/>
  <path class="cls-1" d="M.41,22.16c-1.3-1.29.82-8.64,1.67-10.37C9.89-4.03,35.01.32,36.45,18.4c.09,1.12.41,3.98-1.04,4.07-2.23.14-1.38-2.27-1.54-3.81C32.03.47,5.89.13,2.93,17.27c-.2,1.16-.08,3.92-.43,4.66s-1.65.67-2.09.23Z"/>
  <path class="cls-1" d="M154.72,1.39c-.12.89.33,2.11-.35,2.78h-10.53v6.25h9.95v2.55h-9.95v6.6l.52.3,10.44-.16c.69.2.27,2.15.38,2.75h-14.12V1.39h13.65Z"/>
  <path class="cls-1" d="M172.77,0v22.45h-2.78s0-1.85,0-1.85c-5.68,5.09-12.8,1.03-12.03-6.59.54-5.3,7.42-7.92,11.35-4.41.33.29.32.78.68.82V0h2.78ZM164.15,10.7c-4.4.76-4.74,8-.41,9.32,7.86,2.39,8.73-10.76.41-9.32Z"/>
  <path class="cls-1" d="M29.57,22.16c-.46-1.91-.16-3.6-.81-5.55-3.59-10.77-19.65-9.49-21.43,2.51-.16,1.08.3,2.34-.49,3.21-2.98,1.2-2.19-3.59-1.79-5.26,3.42-14.32,24.52-13.76,26.76,1.35.27,1.85.65,5.06-2.23,3.73Z"/>
  <path class="cls-1" d="M81.12,16.43c.22,4.32,5.98,5.4,8.48,2.11l1.92,1.28c-1.48,2.77-5.65,3.57-8.51,2.71-3.21-.96-5.08-4.36-4.9-7.59.46-8.12,12.65-9.89,14.09-1.14.07.44.36,2.64-.09,2.64h-10.99ZM81.12,14.35h7.98c.75,0,.02-2.12-.24-2.54-1.97-3.22-8.02-1.45-7.74,2.54Z"/>
  <path class="cls-1" d="M136.43,22.45h-2.32c-.16-.16.34-2.14-.34-1.85-2.58,3.58-9.73,2.93-9.63-2.2.04-2.11,1.44-3.45,3.33-4.1.35-.12,2.38-.65,2.59-.65h3.82c.2-4.23-5.04-4.4-7.29-1.86l-1.73-1.73c2.6-2.34,8.43-3.1,10.64,0,.28.39.93,1.7.93,2.08v10.3ZM133.89,15.74h-3.59c-.79,0-3.04.9-3.31,1.78-.54,1.81.35,2.93,2.14,3.09,3.3.28,4.91-1.68,4.76-4.87Z"/>
  <path class="cls-1" d="M179.48,8.33v9.6c0,.43.91,1.64,1.35,1.89,1.98,1.14,4.56.25,5.42-1.84.07-.18.41-1.36.41-1.44v-8.22h2.55v14.12h-2.55s-.11-2.08-.11-2.08c-1.92,3.28-7.39,3.4-9.19-.07-.1-.19-.65-1.58-.65-1.67v-10.3h2.78Z"/>
  <path class="cls-1" d="M64,22.45h-2.78v-9.14c0-.08-.4-1.2-.49-1.36-1.1-1.92-4.29-1.73-5.65-.15-.34.39-1.03,1.78-1.03,2.21v8.45h-2.55v-14.12h2.55s0,2.08,0,2.08c2.38-3.5,8.44-3.26,9.62,1.14.06.22.33,1.64.33,1.75v9.14Z"/>
  <path class="cls-1" d="M71.64,4.4v3.93h3.93v2.31h-3.59c-.33.2-.32.46-.36.8-.16,1.37-.15,5.79.11,7.08.41,1.96,2.24,2.2,3.83,1.38v2.39c-1.94,1.29-6.05.58-6.46-2.06s.31-6.36-.05-9.21c-.24-.73-2.53-.24-3.21-.38v-2.32h3.24l-.14-3.71,2.68-.22Z"/>
  <path class="cls-1" d="M22.93,15.83c-3.6-3.93-10.18-1.68-10.94,3.55-.12.78.13,2.24-.27,2.74-3.62,1.83-2.28-4.11-1.45-5.85,3.15-6.67,13.39-6.53,16.25.27.45,1.07,1.33,5.25.23,5.79-2.57,1.25-1.89-2.58-2.24-4.01-.22-.91-.94-1.81-1.56-2.49Z"/>
  <rect class="cls-1" x="43.86" y="1.39" width="2.78" height="21.06"/>
  <path class="cls-1" d="M113.75,8.33h2.78s.11,2.09.11,2.09c.94-2.01,3.09-2.54,5.21-2.32v3.01c-1.63-.55-3.8-.12-4.73,1.41-.09.15-.6,1.41-.6,1.49v8.45h-2.78v-14.12Z"/>
  <path class="cls-1" d="M17.42,16.02c1.74-.3,3.28.12,4.33,1.58,2.82,3.93-1.55,8.92-5.82,6.28-3.22-1.99-2.29-7.21,1.49-7.86ZM19.73,19.04c-1.44-1.79-4.46.55-2.82,2.47,1.42,1.66,4.36-.56,2.82-2.47Z"/>
</svg>